<?xml version="1.0" standalone="no"?>
<!DOCTYPE svg PUBLIC "-//W3C//DTD SVG 20010904//EN"
 "http://www.w3.org/TR/2001/REC-SVG-20010904/DTD/svg10.dtd">
<svg version="1.0" xmlns="http://www.w3.org/2000/svg"
 width="300.000000pt" height="300.000000pt" viewBox="0 0 300.000000 300.000000"
 preserveAspectRatio="xMidYMid meet">
<metadata>
Created by potrace 1.10, written by Peter Selinger 2001-2011
</metadata>
<g transform="translate(0.000000,300.000000) scale(0.100000,-0.100000)"
fill="#000000" stroke="none">
<path d="M1445 2858 c-146 -14 -229 -30 -333 -64 -130 -42 -313 -136 -417
-214 -93 -69 -240 -221 -322 -333 -32 -44 -84 -108 -115 -143 -46 -50 -58 -70
-58 -96 0 -18 -10 -57 -22 -86 l-22 -53 23 -42 c22 -41 22 -44 7 -102 -20 -74
-22 -305 -4 -335 10 -15 10 -24 1 -39 -6 -10 -16 -36 -22 -57 -7 -27 -20 -44
-41 -56 -39 -22 -53 -59 -44 -124 6 -54 24 -79 59 -86 16 -3 21 -13 25 -59 6
-64 19 -85 60 -94 28 -6 28 -7 23 -60 -8 -74 3 -120 38 -160 40 -45 105 -69
166 -62 47 6 49 5 74 -32 59 -85 253 -230 418 -311 371 -183 822 -181 1191 5
154 78 371 247 410 319 13 25 17 27 66 20 71 -8 132 19 171 77 25 38 28 52 28
123 0 76 1 81 22 84 37 5 63 48 63 103 0 45 2 49 23 49 36 0 58 32 63 91 6 63
-9 98 -49 117 -18 9 -30 25 -38 55 -6 23 -16 48 -21 55 -8 9 -6 24 7 52 15 34
17 58 12 157 -3 65 -11 146 -18 180 -11 54 -11 64 4 87 22 33 21 58 -4 107
-13 27 -18 50 -14 69 5 22 0 36 -27 66 -18 22 -41 45 -51 52 -9 7 -26 31 -37
52 -54 106 -256 321 -398 423 -266 192 -610 293 -897 265z m185 -38 c266 -26
491 -112 708 -272 145 -107 394 -386 371 -415 -8 -9 -30 12 -88 85 -202 253
-445 426 -716 511 -147 46 -258 61 -410 56 -209 -7 -363 -48 -568 -152 -185
-94 -307 -194 -458 -376 -56 -67 -105 -126 -110 -131 -5 -6 -11 -2 -15 8 -8
20 78 136 186 250 150 157 383 305 585 371 73 24 100 31 190 50 17 4 63 9 104
11 41 2 76 6 79 9 7 7 30 6 142 -5z m113 -105 c24 -10 21 -20 -8 -33 -20 -9
-25 -19 -25 -49 0 -34 -11 -50 -90 -140 -50 -56 -90 -104 -90 -107 0 -3 27 -5
60 -5 54 1 63 4 85 31 34 40 58 32 44 -14 -6 -18 -10 -55 -10 -82 0 -45 -2
-48 -22 -42 -46 12 -184 17 -239 9 l-56 -10 5 56 c6 60 31 98 162 250 l56 64
-34 -6 c-18 -4 -49 -7 -67 -7 -28 0 -37 -6 -56 -40 -35 -61 -50 -53 -46 26 2
53 -1 68 -15 79 -9 7 -17 18 -17 25 0 10 37 11 173 8 94 -3 180 -9 190 -13z
m-383 -9 c0 -7 -7 -19 -15 -26 -11 -9 -15 -34 -15 -96 0 -75 2 -83 21 -89 l21
-7 -21 -15 c-18 -12 -21 -24 -21 -97 0 -71 3 -85 17 -91 13 -4 -6 -14 -62 -33
l-80 -27 -25 48 c-28 52 -40 52 -40 2 0 -65 -11 -91 -45 -109 -19 -10 -44 -29
-56 -42 -30 -31 -39 -30 -30 4 6 20 0 45 -26 101 -18 40 -31 77 -28 81 3 5 1
11 -4 14 -5 4 -12 2 -16 -4 -3 -5 -13 -10 -21 -10 -12 0 -12 3 -2 20 11 17 8
29 -20 85 -17 36 -39 66 -47 66 -53 5 -52 14 2 45 26 15 65 38 86 51 44 28 61
23 45 -12 -9 -21 -4 -40 35 -134 26 -59 47 -114 47 -120 0 -6 3 -11 8 -11 4 0
7 50 7 111 -1 94 2 112 17 120 31 16 38 10 80 -76 23 -47 45 -85 48 -85 3 0 2
59 -1 131 -5 124 -7 133 -30 150 -13 10 -22 20 -19 22 6 5 159 45 178 46 6 1
12 -5 12 -13z m542 -36 c35 -10 72 -26 83 -34 20 -14 19 -15 -6 -24 -19 -8
-28 -21 -36 -59 -7 -26 -14 -55 -18 -64 -4 -11 8 -21 47 -37 81 -32 79 -33 99
32 14 45 15 64 7 82 -6 13 -9 27 -5 30 6 6 123 -56 158 -85 l22 -18 -30 -6
c-27 -5 -34 -14 -57 -73 -19 -51 -23 -71 -14 -81 14 -17 2 -31 -14 -15 -16 16
-31 15 -25 -2 3 -8 -7 -48 -22 -89 -18 -47 -26 -86 -23 -107 l5 -32 -48 37
c-26 20 -61 43 -78 52 l-31 15 30 13 c24 10 33 24 48 69 9 32 16 59 14 61 -12
12 -109 52 -111 47 -2 -4 -10 -33 -17 -65 -11 -48 -11 -61 0 -82 18 -34 9 -39
-31 -16 -19 10 -53 25 -76 32 -46 13 -54 24 -25 33 14 5 24 28 37 86 18 79 18
81 -1 95 -19 14 -18 15 3 21 18 5 25 20 39 81 15 68 15 75 0 92 -34 37 -16 40
76 11z m-749 -29 c9 -16 17 -43 17 -61 0 -30 -1 -31 -22 -16 -32 23 -43 20
-88 -20 -39 -35 -39 -35 -44 -12 -3 13 -5 30 -5 38 0 8 -2 24 -6 36 -6 18 1
24 42 42 67 28 86 27 106 -7z m637 -34 c0 -25 -10 -62 -27 -94 -22 -45 -29
-52 -49 -47 -13 3 -33 -1 -48 -11 -37 -25 -33 -13 24 61 27 36 53 77 56 92 16
64 44 64 44 -1z m252 -39 c-5 -73 -19 -96 -50 -79 -17 9 -19 16 -12 41 10 36
48 100 59 100 4 0 5 -28 3 -62z m-636 -37 c5 -5 17 -11 27 -13 16 -3 14 -9
-18 -51 -41 -53 -51 -56 -34 -9 7 22 7 36 0 51 -6 11 -11 22 -11 25 0 9 25 7
36 -3z m-631 -67 c0 -5 -31 -37 -70 -70 -38 -34 -99 -93 -134 -132 -62 -70
-91 -88 -91 -56 0 24 257 276 278 272 9 -2 17 -8 17 -14z m1589 -35 c92 -77
218 -220 206 -234 -7 -9 -49 27 -150 127 -77 77 -140 144 -140 149 0 19 24 7
84 -42z m-1532 4 c20 -22 49 -93 40 -94 -4 -1 -17 0 -30 1 -13 1 -32 -6 -43
-16 -16 -14 -21 -15 -35 -3 -14 12 -20 9 -44 -19 -14 -17 -34 -32 -42 -32 -9
0 -26 -8 -38 -18 -19 -16 -21 -22 -11 -40 6 -12 16 -22 21 -22 5 0 17 -14 26
-31 17 -34 8 -33 -33 4 -17 15 -31 18 -58 14 -20 -3 -35 -2 -35 4 0 10 251
269 261 269 3 0 13 -8 21 -17z m1443 -15 c17 -18 46 -47 65 -64 19 -17 49 -45
65 -63 l30 -33 -35 7 c-19 4 -48 20 -63 36 -24 24 -31 27 -48 18 -16 -8 -25
-7 -40 6 -10 10 -27 15 -39 12 -24 -6 -27 15 -6 64 25 59 30 61 71 17z m-325
-127 c0 -35 -26 -62 -36 -36 -8 19 11 65 26 65 5 0 10 -13 10 -29z m296 -10
c-9 -14 -33 -14 -41 -1 -4 6 -1 18 6 26 11 13 14 13 27 0 8 -8 11 -19 8 -25z
m-1454 -31 l31 0 -21 -23 c-21 -22 -29 -47 -16 -47 3 0 20 11 36 25 32 27 51
28 56 4 2 -9 -11 -20 -33 -28 -20 -7 -52 -26 -71 -43 -35 -31 -47 -29 -17 4
12 14 14 21 5 30 -8 8 -18 3 -37 -18 l-26 -29 7 36 c5 35 4 37 -35 52 -54 22
-52 31 5 24 29 -3 47 -1 49 7 3 6 10 25 17 41 l12 30 4 -32 c3 -29 7 -33 34
-33z m64 49 c3 -6 1 -16 -4 -21 -13 -13 -45 8 -36 23 7 12 31 11 40 -2z m1460
-34 c-9 -25 20 -37 70 -29 56 8 53 -6 -6 -26 -39 -13 -40 -14 -34 -49 l6 -36
-24 29 c-14 17 -27 25 -31 19 -9 -14 15 -63 32 -63 9 0 11 -6 6 -17 -23 -56
-18 -86 21 -133 l27 -31 -39 -40 c-64 -66 -70 -67 -102 -13 -15 26 -38 60 -51
76 -22 27 -25 28 -46 14 -20 -13 -25 -12 -58 11 -33 24 -36 24 -66 9 -36 -19
-53 -47 -44 -73 4 -11 -7 -5 -30 16 -34 32 -37 39 -37 91 0 76 -18 100 -74
100 -31 0 -48 6 -62 21 -18 20 -18 20 11 13 17 -4 32 -8 34 -10 2 -2 16 3 32
11 34 18 40 19 38 3 -4 -36 6 -51 57 -85 l56 -37 44 23 c24 13 44 28 44 32 0
5 7 9 16 9 13 0 15 -7 11 -29 -4 -21 -1 -37 12 -52 17 -21 21 -22 60 -10 61
18 73 49 36 96 -34 45 -27 54 19 25 20 -12 41 -20 47 -18 17 6 -39 56 -77 70
-34 12 -44 31 -23 44 6 3 24 -6 40 -22 22 -21 32 -25 41 -16 9 9 6 18 -13 38
l-24 27 27 -5 c24 -4 27 -1 33 31 6 30 8 33 17 18 5 -10 7 -24 4 -32z m-1371
-42 c14 -25 25 -55 25 -66 0 -19 -1 -19 -18 -4 -26 24 -32 22 -85 -26 -57 -51
-61 -79 -14 -107 17 -11 40 -20 49 -20 27 0 48 29 48 65 0 45 16 52 48 23 59
-53 58 -52 105 -24 l44 25 0 -57 c0 -47 -4 -63 -27 -92 -51 -67 -66 -117 -48
-166 7 -21 8 -37 1 -49 -9 -15 -18 -10 -78 44 -37 33 -76 61 -86 61 -10 0 -19
2 -19 5 0 5 25 48 37 64 2 3 16 -7 31 -21 19 -18 36 -25 55 -23 69 8 89 75 36
119 -38 33 -50 32 -83 0 -24 -25 -27 -26 -50 -11 -23 15 -26 15 -45 -1 -12 -9
-34 -42 -50 -72 -16 -30 -33 -56 -39 -58 -5 -1 -33 19 -62 45 l-52 48 31 39
c36 45 41 98 14 129 -18 19 -17 20 17 13 26 -4 43 -1 65 15 17 11 45 26 63 34
40 18 49 38 33 81 -14 39 -7 61 15 44 7 -7 25 -32 39 -57z m1235 44 c0 -7 -7
-23 -16 -35 -8 -12 -13 -30 -9 -40 4 -13 -2 -22 -20 -30 -14 -6 -25 -10 -25
-9 0 12 35 104 43 115 12 16 27 16 27 -1z m-632 -24 c2 -8 -5 -13 -17 -13 -12
0 -21 6 -21 16 0 18 31 15 38 -3z m-197 -19 c0 -6 -88 -41 -116 -47 -5 -1 -10
4 -10 12 0 8 26 23 60 35 55 20 67 20 66 0z m1143 -33 l20 -22 -42 7 c-33 5
-47 3 -62 -11 -11 -10 -23 -16 -26 -12 -3 3 8 18 25 33 17 15 31 36 31 46 0
17 1 17 18 0 9 -10 26 -28 36 -41z m-1034 34 c-15 -19 -98 -60 -105 -53 -3 3
2 19 12 37 16 27 23 31 62 31 37 0 42 -2 31 -15z m239 -17 c20 -32 20 -33 1
-36 -23 -4 -69 19 -94 47 l-19 21 45 0 c41 0 48 -4 67 -32z m101 5 c54 -18 58
-22 41 -32 -10 -6 -110 21 -130 35 -10 8 14 24 28 19 9 -4 36 -13 61 -22z
m-304 -28 c-7 -28 8 -34 22 -9 8 14 10 14 21 0 20 -24 32 -19 25 9 -9 35 11
31 26 -6 8 -19 18 -28 26 -25 8 4 21 9 31 13 9 4 -1 -17 -24 -48 -22 -30 -52
-76 -66 -103 l-26 -48 -19 39 c-11 21 -41 66 -66 100 -53 69 -56 80 -20 57 25
-17 47 -10 50 17 1 5 2 14 3 19 0 6 6 10 12 10 7 0 9 -10 5 -25z m-229 -31
l38 7 -26 -24 c-19 -17 -35 -22 -60 -19 -31 3 -34 7 -36 39 l-2 35 24 -22 c20
-18 31 -21 62 -16z m-797 -6 c0 -6 -7 -8 -14 -5 -9 4 -33 -14 -63 -47 -71 -77
-137 -116 -76 -44 10 12 11 18 3 23 -7 4 -24 -7 -40 -26 -24 -28 -26 -36 -15
-48 11 -11 8 -23 -18 -71 l-31 -57 28 -37 28 -37 -17 -76 c-11 -49 -17 -120
-17 -200 0 -117 -1 -123 -20 -123 -20 0 -20 5 -15 153 2 83 10 176 17 205 13
50 12 53 -10 77 -21 22 -22 27 -9 57 7 18 21 46 31 63 15 26 16 31 2 46 -14
15 -10 21 34 67 48 49 50 50 66 33 17 -18 19 -17 63 30 36 39 49 47 59 38 8
-6 14 -16 14 -21z m2248 -45 c18 17 21 15 67 -34 43 -46 46 -52 32 -66 -14
-14 -13 -21 14 -68 35 -61 35 -72 8 -101 -20 -21 -20 -24 -5 -100 14 -74 18
-155 17 -281 -1 -44 -4 -53 -18 -53 -16 0 -18 14 -19 138 -1 85 -7 161 -16
200 -16 63 -16 63 9 93 29 34 26 58 -12 118 -21 34 -22 40 -8 54 14 13 12 19
-21 53 -21 23 -33 31 -29 20 5 -15 3 -17 -8 -11 -8 5 -4 -3 9 -17 30 -33 28
-40 -8 -20 -16 9 -30 20 -30 24 0 15 -93 93 -106 90 -17 -4 -18 10 -2 26 10
10 23 2 60 -35 45 -44 48 -46 66 -30z m-1560 48 c-6 -17 -99 -82 -108 -76 -18
11 -10 23 38 54 46 30 77 40 70 22z m823 -27 c32 -24 47 -40 41 -46 -8 -8 -61
20 -111 58 -4 3 8 24 15 24 2 0 27 -16 55 -36z m-1458 5 c7 -12 -9 -33 -69
-92 -43 -42 -82 -77 -86 -77 -5 0 -11 7 -14 15 -7 17 133 178 149 172 6 -2 15
-10 20 -18z m97 13 c0 -5 19 -28 43 -51 l42 -43 -54 -46 c-29 -26 -96 -95
-147 -154 -52 -59 -100 -108 -107 -108 -7 0 -43 30 -80 68 l-67 67 26 30 25
30 -4 -27 c-2 -15 -1 -32 3 -37 4 -7 67 50 150 134 129 130 170 163 170 137z
m1872 -19 c31 -30 36 -46 11 -36 -11 4 -14 3 -9 -6 4 -6 13 -10 21 -9 14 3
200 -164 216 -194 14 -26 9 -23 -46 27 -50 45 -75 53 -38 12 39 -44 35 -51 -7
-12 -34 32 -40 35 -30 15 7 -14 31 -46 53 -73 l40 -47 29 42 c15 24 28 39 28
34 0 -5 3 -7 6 -4 3 4 1 16 -6 27 -14 27 1 27 25 1 18 -20 17 -22 -46 -89 -35
-38 -68 -69 -74 -70 -5 -1 -78 70 -162 156 l-151 158 46 47 c26 27 51 48 56
48 6 0 23 -12 38 -27z m90 5 c7 -13 12 -27 13 -33 0 -5 6 -10 13 -10 7 0 36
-27 64 -60 48 -56 50 -60 28 -63 -18 -3 -42 15 -104 77 -77 77 -80 81 -61 95
27 21 32 20 47 -6z m-1642 -2 c0 -20 -19 -31 -32 -18 -6 6 -7 15 -4 21 10 16
36 13 36 -3z m1230 0 c0 -20 -19 -31 -32 -18 -6 6 -7 15 -4 21 10 16 36 13 36
-3z m-736 -58 c19 -34 33 -64 32 -66 -2 -1 -30 13 -62 32 -32 20 -71 38 -86
41 -15 4 -28 10 -28 15 0 15 46 39 77 39 29 1 35 -5 67 -61z m321 37 c21 -17
25 -24 14 -25 -9 0 -52 -18 -95 -39 -43 -22 -79 -39 -80 -38 -1 1 14 30 34 65
32 55 40 62 67 62 17 0 43 -11 60 -25z m-869 -16 c8 -13 -32 -56 -42 -46 -8 8
15 57 27 57 4 0 11 -5 15 -11z m1334 -37 c0 -13 -11 -10 -38 11 -10 8 -10 13
0 24 10 13 14 12 25 -3 7 -10 13 -24 13 -32z m-905 -4 c2 -2 6 -15 10 -30 l7
-28 -33 14 c-19 7 -47 16 -63 20 -29 7 -29 7 -23 -33 6 -46 -4 -53 -21 -16
-13 28 -15 58 -6 91 l6 22 60 -19 c33 -10 62 -19 63 -21z m559 6 c7 -37 -9
-104 -25 -104 -12 0 -12 17 1 40 7 13 6 21 -4 29 -13 11 -40 5 -108 -24 -16
-6 -17 -4 -7 24 9 25 21 34 67 49 31 11 60 20 63 21 4 0 10 -15 13 -35z m-949
6 c9 -15 -16 -43 -27 -32 -10 10 0 42 12 42 5 0 12 -5 15 -10z m1245 -5 c10
-12 10 -19 2 -27 -9 -9 -15 -7 -26 7 -23 32 0 49 24 20z m-1790 -2 c-1 -12
-61 -76 -66 -70 -4 4 55 77 63 77 2 0 3 -3 3 -7z m2321 -15 c27 -33 23 -45 -6
-18 -24 22 -32 40 -19 40 3 0 14 -10 25 -22z m-282 -93 c0 -5 -15 8 -34 29
-19 22 -35 44 -35 50 1 6 16 -7 35 -29 19 -22 35 -44 34 -50z m-1739 40 c-19
-19 -38 -35 -44 -35 -5 0 5 16 24 35 19 19 38 35 44 35 5 0 -5 -16 -24 -35z
m739 -19 c26 -14 63 -37 80 -52 l32 -27 27 26 c15 13 51 37 81 52 61 30 69 27
96 -37 l15 -38 -32 -13 c-92 -39 -106 -41 -135 -27 -38 19 -74 20 -100 4 -12
-8 -29 -14 -36 -14 -16 0 -117 39 -130 50 -9 8 33 100 45 100 5 0 30 -11 57
-24z m-399 -12 c0 -11 6 -13 20 -9 23 7 28 -12 6 -21 -9 -3 -12 -13 -8 -27 5
-20 4 -21 -12 -8 -13 11 -20 11 -28 3 -17 -17 -31 -15 -24 4 4 9 2 22 -4 29
-8 9 -5 14 10 18 11 3 20 13 20 22 0 9 5 13 10 10 6 -3 10 -13 10 -21z m1043
5 c4 -15 11 -20 21 -16 17 7 22 -8 6 -18 -5 -3 -10 -15 -10 -27 0 -17 -2 -18
-15 -8 -12 10 -18 10 -30 0 -12 -10 -15 -9 -15 5 0 10 -8 27 -17 38 -17 19
-17 20 6 14 17 -4 24 -1 28 14 7 25 19 24 26 -2z m-763 -44 c-10 -24 -34 -58
-52 -75 l-33 -30 34 7 35 6 -41 -49 c-53 -63 -85 -125 -99 -194 -11 -50 -13
-52 -15 -20 -4 59 2 93 22 135 l20 40 -23 -26 c-13 -14 -29 -35 -36 -45 -11
-17 -12 -14 -6 16 12 65 44 136 81 180 36 42 108 100 124 100 5 0 0 -20 -11
-45z m497 16 c83 -60 153 -173 153 -248 0 -25 -2 -24 -30 15 -40 55 -45 53
-15 -4 18 -35 25 -62 25 -105 0 -33 -4 -59 -10 -59 -5 0 -10 19 -10 43 0 53
-45 149 -94 199 -20 20 -36 40 -36 44 0 3 15 4 33 0 l32 -6 -36 33 c-34 30
-79 117 -60 117 4 0 26 -13 48 -29z m-889 -4 c2 -10 -3 -17 -12 -17 -18 0 -29
16 -21 31 9 14 29 6 33 -14z m282 5 c0 -11 -10 -27 -21 -38 -12 -10 -35 -43
-52 -73 -38 -68 -48 -49 -13 23 44 89 86 132 86 88z m730 -27 c36 -53 63 -112
57 -128 -2 -7 -12 4 -22 23 -9 19 -34 55 -55 80 -34 41 -42 70 -20 70 5 0 23
-20 40 -45z m260 19 c0 -14 -21 -19 -33 -7 -9 9 13 34 24 27 5 -3 9 -12 9 -20z
m-1561 9 c0 -5 -14 -19 -32 -33 -30 -24 -30 -14 1 23 15 17 32 23 31 10z m106
-115 c55 -50 101 -95 103 -100 6 -13 -25 -38 -45 -38 -18 1 -203 168 -203 185
0 10 30 45 39 45 4 0 51 -41 106 -92z m1731 71 c14 -16 15 -23 7 -26 -7 -3
-13 -10 -13 -17 0 -6 -25 -34 -56 -61 -31 -28 -69 -62 -84 -77 -32 -33 -51
-35 -74 -9 -17 19 -16 22 51 84 99 93 137 126 144 127 3 0 14 -10 25 -21z
m-313 -6 c2 -10 8 -26 12 -35 6 -14 2 -18 -15 -18 -13 0 -46 -23 -81 -57 -46
-44 -62 -54 -71 -45 -9 9 -10 20 -1 42 7 19 8 43 2 67 -12 55 -12 56 20 32 34
-25 74 -20 93 11 16 25 34 26 41 3z m59 -15 c-9 -9 -15 -9 -24 0 -10 10 -10
15 2 22 9 6 19 5 24 0 7 -7 6 -14 -2 -22z m-862 -38 c0 -10 7 -23 16 -28 14
-8 14 -10 0 -21 -9 -8 -16 -20 -16 -27 0 -8 -5 -14 -10 -14 -6 0 -15 -10 -19
-22 -9 -22 -9 -22 -16 -3 -3 11 -10 27 -15 36 -6 12 -3 22 9 33 17 16 19 16
25 0 4 -9 9 -14 12 -11 3 3 -2 17 -11 31 -14 21 -15 29 -5 41 15 18 30 11 30
-15z m402 -29 c-15 -23 -15 -24 -1 -13 24 18 41 -6 33 -47 -7 -36 -12 -38 -30
-13 -12 16 -13 15 -14 -5 0 -27 -7 -28 -34 -8 -34 26 -46 19 -30 -15 29 -57
-11 -85 -85 -59 -41 15 -40 41 4 75 32 24 34 28 18 39 -14 11 -23 10 -46 -1
-24 -13 -32 -13 -56 -1 -20 10 -34 11 -46 4 -16 -8 -14 -13 19 -43 46 -42 46
-60 -1 -73 -54 -15 -71 -14 -83 9 -11 21 -4 70 12 70 5 0 6 5 3 10 -4 6 -18 2
-36 -11 -17 -12 -33 -19 -35 -16 -6 5 21 52 43 75 17 18 44 15 36 -3 -5 -14 0
-13 30 2 22 11 32 22 26 28 -5 7 5 18 27 30 33 18 37 18 62 3 15 -9 27 -23 27
-30 0 -7 14 -20 30 -29 31 -17 52 -16 25 1 -12 8 -9 10 10 10 17 0 32 -11 48
-33 12 -18 22 -25 22 -17 0 9 -7 26 -16 38 -9 13 -11 22 -4 22 6 0 16 14 22
32 10 28 12 30 24 13 11 -14 10 -22 -4 -44z m-892 28 c0 -24 -23 -21 -28 4 -2
10 3 17 12 17 10 0 16 -9 16 -21z m1386 10 c10 -17 -13 -36 -27 -22 -12 12 -4
33 11 33 5 0 12 -5 16 -11z m-1576 -103 c55 -54 98 -101 95 -104 -5 -5 -172
151 -188 176 -5 7 -17 10 -28 7 -21 -7 -27 10 -6 18 19 8 21 7 127 -97z m1868
85 c2 -7 -2 -11 -10 -9 -8 2 -59 -39 -113 -90 -54 -51 -100 -90 -104 -87 -9
10 197 207 211 203 6 -2 14 -10 16 -17z m-1995 -32 c29 -15 177 -160 177 -174
0 -10 -39 -39 -45 -33 -1 2 -7 16 -12 32 -12 38 -37 55 -60 40 -33 -20 -48
-66 -48 -141 0 -69 -1 -73 -22 -73 -25 0 -29 10 -11 28 9 9 9 18 -1 38 -8 19
-9 30 -1 38 5 5 10 23 10 38 0 16 5 37 12 47 9 15 9 25 0 46 -17 38 -61 32
-82 -11 -8 -17 -24 -35 -35 -40 -16 -7 -20 -19 -20 -56 0 -25 -4 -50 -8 -54
-13 -13 -8 -41 13 -67 27 -34 25 -39 -12 -35 l-33 3 -3 120 c-2 123 -12 160
-44 171 -17 5 -25 43 -12 57 4 4 22 -7 41 -23 18 -17 42 -30 53 -30 11 0 39
20 62 45 46 49 49 50 81 34z m411 -16 l24 -28 -60 -62 c-40 -40 -66 -60 -77
-56 -14 4 -14 3 -1 -6 12 -9 6 -19 -41 -63 -47 -45 -55 -57 -48 -76 5 -12 12
-22 17 -22 4 0 32 25 62 55 59 60 60 71 2 28 -47 -36 -34 -17 77 105 l84 93
20 -22 20 -21 -132 -131 -131 -132 -47 47 -48 48 129 125 c118 115 146 155 75
104 -16 -11 -29 -16 -29 -11 0 10 59 52 73 52 4 0 19 -12 31 -27z m1232 6 c19
-11 34 -25 34 -31 0 -5 -12 0 -26 11 -15 12 -32 21 -38 20 -6 0 47 -56 118
-124 112 -107 128 -126 117 -139 -15 -17 -41 -22 -41 -7 0 5 5 11 12 13 8 3 5
12 -10 28 -12 13 -22 27 -22 32 0 11 -56 38 -80 38 -18 0 -11 -10 34 -51 31
-28 53 -55 50 -60 -3 -5 0 -9 5 -9 18 0 12 -26 -9 -45 -17 -15 -22 -16 -37 -5
-36 27 -243 235 -243 244 0 5 7 17 16 27 15 16 22 10 114 -89 99 -107 121
-142 55 -83 -20 17 -38 31 -41 31 -9 0 33 -54 70 -90 33 -31 38 -33 52 -18 21
20 15 30 -67 115 -36 37 -85 89 -109 116 l-43 48 23 24 c28 30 25 30 66 4z
m426 -24 c45 -51 64 -55 106 -20 17 14 35 25 41 25 21 0 11 -41 -16 -65 -28
-23 -28 -25 -28 -144 0 -130 -5 -145 -50 -139 l-27 3 21 27 c23 28 27 58 11
74 -6 6 -6 21 3 43 11 32 11 34 -20 60 -18 15 -33 34 -33 41 0 17 -29 50 -45
50 -6 0 -22 -11 -35 -25 -23 -24 -23 -27 -8 -53 16 -27 20 -55 19 -123 0 -27
7 -44 27 -65 22 -22 23 -26 7 -19 -11 4 -30 10 -42 12 -19 4 -21 11 -20 57 1
60 -21 141 -45 162 -13 12 -21 13 -37 4 -12 -6 -22 -16 -23 -23 0 -7 -2 -16
-3 -22 -2 -5 -3 -18 -4 -28 -1 -17 -2 -17 -31 0 -16 9 -30 22 -30 28 0 10 153
158 184 177 22 15 39 7 78 -37z m-1332 -82 c0 -52 1 -55 18 -41 34 30 39 28
39 -16 0 -23 9 -63 21 -88 16 -33 22 -62 22 -114 l-1 -69 -19 24 c-27 32 -27
4 0 -51 25 -53 25 -70 0 -40 -25 30 -53 123 -70 230 -8 45 -17 79 -20 75 -8
-9 3 -143 15 -187 16 -60 -13 -15 -35 55 -21 63 -22 79 -13 133 6 33 9 62 8
64 -2 2 -10 -18 -19 -44 -30 -89 -14 -202 33 -237 20 -14 61 -79 61 -96 0 -6
-18 -11 -44 -11 l-44 0 -53 91 c-30 51 -66 104 -81 118 -42 40 -54 76 -34 106
18 27 36 33 36 13 0 -7 7 -26 16 -43 9 -16 27 -51 40 -77 35 -70 68 -83 39
-15 -17 42 -19 106 -5 157 13 48 68 133 80 125 6 -3 10 -31 10 -62z m570 21
c52 -83 61 -181 25 -269 -17 -41 26 7 49 55 12 25 27 54 33 65 7 11 14 29 18
40 6 19 8 18 31 -8 27 -32 24 -43 -29 -105 -41 -47 -65 -83 -106 -154 -31 -55
-34 -58 -72 -58 -21 0 -39 5 -39 10 0 20 31 71 67 111 48 53 56 124 24 214
-16 46 -19 51 -14 20 14 -75 8 -137 -20 -195 -15 -30 -25 -44 -22 -30 14 63
25 194 17 202 -4 4 -16 -40 -26 -100 -20 -115 -48 -203 -71 -222 -22 -18 -19
2 5 50 27 53 27 86 0 45 l-20 -30 0 78 c0 59 5 88 21 119 14 28 20 54 17 84
-2 24 0 44 3 44 4 0 18 -9 33 -21 l26 -20 0 60 c0 35 4 61 10 61 6 0 24 -21
40 -46z m-1516 -47 c-4 -11 -7 -73 -8 -137 -1 -95 -4 -115 -16 -115 -12 0 -16
19 -18 95 -2 52 0 119 3 147 6 49 8 52 26 42 15 -7 18 -16 13 -32z m184 25
c18 -12 4 -42 -19 -42 -14 0 -19 7 -19 25 0 25 14 31 38 17z m539 -6 c-4 -10
-1 -13 9 -9 31 12 10 -17 -73 -98 -96 -93 -116 -109 -107 -85 4 9 1 16 -6 16
-9 0 -9 4 1 17 8 9 9 14 3 10 -6 -3 26 31 70 77 76 78 116 106 103 72z m1066
-78 c50 -51 85 -94 79 -96 -19 -6 -14 -27 13 -50 23 -20 62 -21 49 -1 -3 5 -1
9 5 9 24 0 21 -24 -6 -51 l-29 -29 -34 29 c-28 23 -38 26 -54 17 -14 -8 -20
-8 -23 1 -2 7 -11 9 -19 6 -8 -3 -14 0 -14 6 0 16 33 27 38 13 3 -9 9 -9 23
-1 16 8 26 5 55 -20 54 -48 54 -37 0 18 -34 34 -44 50 -34 55 9 4 9 5 -2 3
-18 -2 -121 83 -151 125 -17 23 -18 32 -9 43 7 8 15 15 18 15 3 0 45 -41 95
-92z m467 83 c0 -5 3 -16 6 -25 4 -12 0 -16 -15 -16 -26 0 -40 28 -20 41 18
11 29 11 29 0z m184 -7 c9 -23 7 -62 -3 -68 -4 -3 -7 -16 -6 -28 4 -42 8 -43
15 -8 6 28 7 20 8 -35 0 -55 -2 -64 -9 -40 -6 21 -7 10 -3 -33 5 -56 3 -63
-12 -60 -15 3 -17 19 -20 138 -1 74 0 138 3 143 7 12 21 8 27 -9z m-287 -138
c6 -73 5 -79 -11 -73 -10 4 -20 7 -22 7 -2 0 -4 21 -4 48 0 26 -4 64 -9 85 -7
30 -6 39 8 46 22 13 30 -12 38 -113z m-1854 84 c-10 -112 -17 -150 -29 -150
-10 0 -14 15 -14 53 0 85 10 128 29 125 10 -2 15 -12 14 -28z m951 10 c17 -6
24 -14 20 -25 -8 -20 -24 -19 -24 1 0 13 -3 14 -14 5 -11 -9 -15 -9 -20 1 -5
11 -7 11 -12 0 -5 -10 -9 -10 -20 -1 -11 9 -14 8 -14 -5 0 -9 -4 -16 -10 -16
-5 0 -10 2 -10 4 0 2 -3 11 -6 19 -9 23 65 35 110 17z m-124 -46 c0 -40 -13
-38 -28 6 -10 27 -9 30 9 30 15 0 19 -7 19 -36z m190 18 c0 -10 -7 -27 -15
-38 -13 -18 -14 -17 -15 19 0 26 4 37 15 37 8 0 15 -8 15 -18z m-1140 -10 c3
-2 0 -7 -7 -9 -7 -2 -10 -10 -7 -16 3 -9 -7 -11 -36 -9 -32 3 -38 7 -30 17 8
10 7 16 -7 24 -14 9 -7 10 32 5 28 -4 52 -9 55 -12z m904 -25 c28 -41 31 -53
16 -62 -10 -6 -28 29 -45 85 -9 30 -4 26 29 -23z m270 -10 c-17 -51 -31 -66
-40 -44 -4 12 45 101 53 94 1 -2 -4 -25 -13 -50z m966 38 c-6 -8 -9 -18 -6
-23 3 -6 -11 -12 -32 -14 -42 -6 -53 -1 -32 12 10 7 11 10 3 10 -7 0 -13 4
-13 9 0 9 13 12 79 19 11 2 11 -1 1 -13z m-1067 -32 c13 -13 -16 -33 -49 -33
-34 0 -50 12 -39 30 7 11 78 14 88 3z m-598 -43 c-16 -16 -30 -28 -33 -26 -8
9 31 56 46 56 11 0 8 -8 -13 -30z m1124 6 c12 -13 18 -26 13 -30 -5 -3 -22 8
-37 24 -20 21 -24 30 -14 30 9 0 26 -11 38 -24z m-1066 -3 c4 -3 3 -11 -2 -17
-9 -11 -11 -17 -11 -36 0 -5 -5 -10 -11 -10 -6 0 -8 7 -5 17 6 15 4 15 -14 -2
-26 -24 -26 -12 2 25 22 31 30 35 41 23z m567 -23 l0 -30 -70 0 c-70 0 -70 0
-70 28 1 24 2 25 14 10 19 -26 92 -24 108 2 17 26 18 25 18 -10z m471 -11 c8
-15 6 -17 -7 -12 -12 4 -15 3 -10 -5 4 -7 2 -12 -4 -12 -13 0 -32 48 -24 61 7
12 30 -6 45 -32z m-1584 12 c-1 -11 -11 -22 -23 -25 -12 -3 -30 -9 -41 -13
-15 -6 -16 -4 -5 9 10 13 10 17 -5 24 -14 6 -9 9 22 14 22 4 43 8 47 9 4 0 6
-8 5 -18z m2148 9 c25 -1 27 -2 13 -11 -10 -5 -15 -16 -11 -25 5 -13 1 -15
-18 -9 -29 9 -57 24 -45 25 5 0 2 8 -5 17 -13 15 -11 16 11 10 14 -4 39 -7 55
-7z m-1109 -55 c63 1 88 5 95 15 7 12 9 10 9 -7 0 -12 3 -29 7 -39 5 -15 2
-16 -23 -10 -27 7 -28 7 -11 -12 11 -12 17 -34 16 -63 l-1 -44 -10 35 c-10 39
-47 90 -54 75 -2 -5 -9 -17 -14 -25 -9 -13 -11 -13 -20 0 -5 8 -11 20 -13 25
-7 20 -37 -18 -50 -63 -13 -44 -14 -45 -21 -18 -4 17 -1 39 9 58 19 40 19 41
-6 33 -19 -6 -21 -4 -16 16 4 13 7 31 8 39 1 12 2 12 6 -1 3 -13 19 -15 89
-14z m-589 -4 c12 12 33 4 33 -13 0 -6 -3 -8 -7 -5 -3 4 -12 2 -19 -4 -9 -7
-19 -7 -31 0 -14 8 -24 4 -50 -21 -17 -17 -36 -27 -42 -24 -5 4 9 24 32 45 37
35 44 38 58 25 11 -10 18 -11 26 -3z m113 8 c0 -5 4 -8 9 -5 18 12 34 -23 25
-56 -14 -48 -34 -47 -34 2 0 25 -4 39 -10 35 -5 -3 -10 3 -10 14 0 12 5 21 10
21 6 0 10 -5 10 -11z m980 -4 c0 -9 -11 -20 -25 -25 -14 -5 -25 -12 -25 -16 0
-3 7 -4 15 0 8 3 15 0 15 -6 0 -6 11 -1 25 12 14 13 25 18 25 12 0 -7 -13 -20
-30 -31 -16 -10 -27 -21 -23 -24 3 -4 -5 -7 -18 -7 -13 0 -31 -5 -39 -10 -12
-8 -11 -10 8 -10 12 0 22 -5 22 -12 0 -6 7 -3 15 8 8 10 15 14 15 8 0 -12 -20
-32 -33 -32 -4 0 -21 -3 -37 -7 -40 -9 -50 -26 -10 -19 25 5 30 3 29 -12 0
-13 -2 -14 -6 -5 -4 10 -7 11 -13 1 -4 -7 -24 -18 -44 -25 -30 -11 -36 -10
-36 1 0 8 7 17 15 20 8 4 15 14 15 25 0 10 8 24 18 31 9 7 17 19 18 26 2 27 5
31 23 37 12 3 18 12 15 20 -7 16 30 55 51 55 8 0 15 -7 15 -15z m-1230 -10 c0
-20 19 -19 44 2 15 13 14 10 -3 -10 -14 -15 -28 -27 -32 -27 -14 0 -39 31 -34
41 9 14 25 11 25 -6z m-91 -62 c22 -84 24 -132 7 -148 -9 -10 -16 -34 -17 -58
l-1 -42 -13 30 c-14 32 -10 53 13 72 11 9 13 24 8 60 -11 79 -36 84 -58 10
-25 -88 -9 -367 22 -367 15 0 30 35 36 85 4 25 11 45 17 45 13 0 1 -91 -20
-142 -10 -25 -20 -37 -29 -34 -8 3 -14 1 -14 -4 0 -11 -33 -13 -78 -4 -28 6
-32 11 -43 63 -20 95 2 369 36 459 3 8 26 12 64 12 l60 0 10 -37z m1783 -43
c25 -104 34 -350 16 -410 l-14 -45 -64 0 -65 0 -22 65 c-23 67 -29 120 -14
120 4 0 11 -20 15 -45 6 -50 21 -85 36 -85 19 0 34 90 34 210 0 131 -15 210
-39 210 -14 0 -35 -57 -35 -97 0 -13 -4 -23 -10 -23 -13 0 -13 27 1 92 18 86
22 89 87 86 l57 -3 17 -75z m-1937 53 c-19 -45 -34 -145 -37 -254 -3 -122 -7
-132 -43 -105 -28 20 -33 163 -10 259 27 112 30 117 66 117 26 0 30 -3 24 -17z
m276 -33 c11 0 30 6 42 14 12 8 42 17 67 20 41 6 48 4 72 -21 15 -15 32 -41
38 -58 10 -26 8 -31 -11 -46 -20 -14 -40 -16 -143 -12 -67 3 -124 8 -128 12
-4 3 -10 37 -14 76 l-7 69 32 -27 c18 -15 41 -27 52 -27z m1730 23 c26 -68 41
-180 36 -258 -6 -88 -14 -118 -29 -109 -5 3 -7 12 -4 20 6 16 -5 19 -20 4 -7
-7 -11 26 -12 102 -2 103 -17 205 -37 251 -6 14 -2 17 24 17 25 0 34 -6 42
-27z m-384 -9 c31 -20 60 -18 91 7 l27 21 3 -28 c2 -16 -1 -47 -6 -69 l-8 -40
-124 -6 c-171 -9 -185 1 -129 92 l32 51 46 -7 c25 -4 56 -13 68 -21z m-1707 9
c0 -5 -7 -30 -16 -58 -18 -60 -31 -288 -15 -265 9 12 11 10 11 -11 0 -14 2
-48 5 -75 4 -35 3 -43 -4 -29 -5 11 -10 35 -10 53 -1 17 -5 32 -11 32 -5 0
-10 -5 -10 -11 0 -8 -4 -9 -13 0 -8 6 -17 8 -20 5 -10 -10 -20 67 -20 146 0
79 27 200 46 212 16 10 57 10 57 1z m658 -21 c4 -29 -17 -94 -29 -87 -5 4 -9
31 -9 61 0 47 3 55 18 52 9 -2 18 -13 20 -26z m1527 -19 c30 -84 33 -333 4
-333 -28 0 -36 30 -42 150 -3 69 -13 148 -21 175 -9 28 -16 51 -16 53 0 1 13
2 29 2 26 0 31 -6 46 -47z m-2270 20 c-37 -90 -45 -208 -21 -341 7 -40 9 -75
5 -77 -7 -5 -19 44 -19 84 -1 22 -2 24 -11 9 -15 -26 -38 -22 -49 8 -15 39
-12 189 6 257 20 79 19 77 61 77 30 0 34 -3 28 -17z m2368 -58 c13 -52 17 -98
15 -177 -2 -59 -6 -110 -10 -114 -4 -3 -14 -4 -23 0 -13 5 -14 10 -4 28 l11
23 -21 -22 c-11 -12 -21 -35 -21 -50 0 -15 -5 -35 -11 -43 -7 -11 -8 2 -2 45
14 101 8 294 -10 343 l-17 43 38 -3 c37 -3 37 -3 55 -73z m-2463 50 c0 -2 -7
-30 -15 -62 -19 -73 -19 -170 0 -270 21 -109 22 -105 -32 -101 -44 3 -47 5
-55 37 -5 18 -7 45 -6 60 l4 26 8 -30 c4 -16 9 -40 12 -52 3 -19 11 -23 38
-23 34 0 34 0 25 32 -5 18 -9 46 -9 62 0 16 -3 26 -7 22 -5 -4 -8 -12 -8 -17
0 -5 -4 -9 -9 -8 -5 0 -12 -4 -16 -11 -16 -26 -32 81 -28 182 6 133 16 158 63
158 19 0 35 -2 35 -5z m2558 -50 c18 -67 11 -283 -9 -296 -10 -6 -18 0 -29 19
l-14 27 -6 -45 c-3 -25 -9 -51 -13 -57 -6 -10 1 -13 28 -13 38 0 39 1 51 65
l8 40 4 -36 c1 -19 -2 -47 -7 -62 -9 -24 -16 -27 -57 -27 -44 0 -45 1 -40 28
29 143 33 260 11 342 -20 73 -20 72 23 68 35 -3 38 -5 50 -53z m-1263 10 l25
-30 24 28 c32 35 38 34 34 -5 l-3 -33 -137 -3 -138 -3 0 38 1 38 20 -27 c26
-36 43 -35 68 1 28 39 72 37 106 -4z m-430 -55 c-21 -48 -38 -36 -29 20 9 48
14 54 32 36 14 -14 14 -19 -3 -56z m35 -26 c0 -33 -18 -66 -31 -58 -10 6 -4
67 8 87 8 14 23 -4 23 -29z m-78 -41 c12 -27 23 -50 25 -53 4 -7 -97 -4 -104
3 -3 3 -2 27 1 52 6 39 10 45 32 45 20 0 29 -9 46 -47z m806 35 c-4 -12 -78
-41 -85 -34 -3 2 5 14 16 25 22 22 75 29 69 9z m100 -45 l3 -53 -45 0 c-25 0
-48 4 -51 10 -3 5 3 30 14 56 18 40 24 45 48 42 26 -3 28 -6 31 -55z m356 41
c8 -20 -3 -84 -14 -84 -8 0 -18 88 -11 96 9 8 19 4 25 -12z m-575 -39 c-24
-35 -36 -45 -57 -45 -15 1 -108 0 -207 0 -99 -1 -184 -1 -190 0 -5 1 -22 1
-36 0 -21 -1 -33 8 -58 44 l-30 46 304 0 304 0 -30 -45z m-1629 -6 c0 -22 -7
-47 -15 -55 -13 -13 -15 -11 -21 13 -10 49 -12 49 -13 2 -1 -44 1 -47 32 -55
l32 -8 -33 -3 c-19 -3 -37 -1 -40 2 -9 9 -8 105 1 128 4 10 17 17 32 17 23 0
25 -4 25 -41z m796 25 c-3 -9 -6 -28 -6 -42 l0 -27 -125 -1 c-137 -1 -136 -1
-119 64 6 21 10 22 131 22 110 0 124 -2 119 -16z m1369 -29 l0 -40 -120 0
-120 0 -6 43 -5 43 125 -3 126 -3 0 -40z m608 1 c5 -20 6 -52 3 -71 -6 -32
-10 -35 -42 -35 -21 0 -33 4 -29 10 3 6 17 10 31 10 22 0 24 3 22 48 -1 36 -2
39 -5 15 -5 -36 -4 -36 -27 -27 -23 9 -22 81 2 87 29 8 36 2 45 -37z m-1723
12 c0 -36 -11 -68 -21 -62 -10 6 -12 67 -2 77 13 14 23 7 23 -15z m674 -6 c5
-9 -7 -16 -64 -40 -24 -10 -24 -11 -2 -11 54 -2 1 -41 -56 -41 l-26 0 32 29
c17 17 32 34 32 39 0 20 73 41 84 24z m-634 -78 c0 -19 -5 -34 -10 -34 -15 0
-27 39 -22 67 7 35 32 9 32 -33z m-243 30 c8 -21 -13 -42 -28 -27 -13 13 -5
43 11 43 6 0 13 -7 17 -16z m1053 -15 c0 -20 -15 -26 -25 -9 -9 15 3 43 15 35
5 -3 10 -15 10 -26z m-758 -54 c5 -44 0 -50 -24 -28 -11 9 -18 30 -18 50 0 30
2 33 19 24 11 -7 20 -25 23 -46z m708 34 c0 -11 -157 -12 -164 0 -3 4 -4 10
-2 12 8 8 166 -3 166 -12z m-1055 1 c4 -6 -40 -10 -124 -10 -81 0 -131 4 -131
10 0 6 48 10 124 10 73 0 127 -4 131 -10z m220 0 c4 -6 -23 -10 -74 -10 -47 0
-81 4 -81 10 0 6 31 10 74 10 41 0 78 -4 81 -10z m505 0 c0 -6 -60 -10 -160
-10 -100 0 -160 4 -160 10 0 6 60 10 160 10 100 0 160 -4 160 -10z m650 0 c0
-6 -48 -10 -125 -10 -77 0 -125 4 -125 10 0 6 48 10 125 10 77 0 125 -4 125
-10z m-1326 -24 c-7 -18 -32 -28 -39 -16 -9 15 4 30 25 30 13 0 17 -5 14 -14z
m1062 2 c4 -6 2 -14 -4 -16 -17 -5 -15 -22 2 -22 18 0 26 -32 14 -54 -11 -19
-28 -12 -28 10 0 9 -7 22 -15 30 -17 17 -20 34 -5 34 5 0 7 7 4 15 -7 18 21
21 32 3z m-727 -11 c16 -20 26 -77 13 -77 -13 0 -27 24 -36 63 -7 29 4 36 23
14z m451 2 c0 -5 6 -7 13 -3 6 4 9 3 5 -1 -18 -20 -115 -15 -103 5 8 13 85 13
85 -1z m-580 -14 c11 -13 7 -21 -28 -51 -22 -19 -43 -43 -47 -53 -6 -20 -45
-41 -74 -41 -10 0 -29 8 -42 19 -18 14 -21 22 -12 32 6 8 17 33 23 56 l13 42
61 4 c34 2 68 4 77 5 9 1 22 -5 29 -13z m1385 -103 c-12 -47 -17 -13 -8 55 l8
68 3 -49 c2 -27 0 -61 -3 -74z m-1755 101 c-1 -20 -30 -43 -53 -43 -29 0 -42
14 -33 35 6 16 86 22 86 8z m1171 -51 l27 -53 -31 -20 c-18 -10 -43 -19 -56
-19 -28 0 -61 26 -61 48 0 8 -16 30 -36 48 -19 19 -32 39 -29 44 4 7 37 10 83
8 l75 -3 28 -53z m264 33 c0 -24 -53 -35 -66 -13 -18 28 -10 39 29 36 29 -2
37 -7 37 -23z m-1265 6 c0 -5 -6 -14 -14 -20 -8 -7 -12 -21 -9 -31 6 -24 -18
-27 -36 -6 -20 24 8 63 47 65 6 1 12 -3 12 -8z m400 -52 c0 -10 -5 -19 -10
-19 -12 0 -30 43 -30 68 1 25 40 -24 40 -49z m319 55 c33 -7 40 -18 17 -27
-19 -8 -97 13 -90 24 6 11 30 11 73 3z m-817 -43 c38 -33 33 -51 -6 -26 -21
14 -25 15 -21 3 3 -8 23 -25 45 -37 40 -22 73 -81 46 -81 -16 0 -38 24 -31 32
3 3 -5 12 -18 21 -13 9 -40 38 -61 66 l-36 51 25 0 c14 0 39 -13 57 -29z m767
10 c23 -12 30 -20 22 -26 -14 -8 -101 22 -101 36 0 15 42 10 79 -10z m496 -18
c-51 -69 -113 -123 -140 -123 -32 0 -29 23 3 28 12 2 20 7 17 11 -2 5 14 16
36 26 22 10 45 27 50 38 10 18 9 18 -16 1 -14 -9 -29 -13 -33 -10 -12 13 57
66 84 66 l26 0 -27 -37z m-725 8 c5 -11 10 -24 10 -30 0 -21 -20 -10 -35 19
-14 26 -14 30 -1 30 9 0 20 -9 26 -19z m159 -3 c28 -18 32 -23 18 -26 -20 -4
-67 23 -67 38 0 15 9 12 49 -12z m-104 -10 c14 -21 14 -23 -2 -27 -16 -3 -43
23 -43 41 0 17 29 7 45 -14z m55 -3 c17 -18 19 -25 9 -25 -18 0 -59 28 -59 41
0 17 26 9 50 -16z m-284 -20 c9 -14 14 -32 10 -40 -3 -9 -2 -13 4 -10 17 10
11 -11 -8 -28 -16 -15 -20 -14 -59 16 -46 35 -51 48 -27 71 23 24 61 20 80 -9z
m568 3 c20 -29 20 -38 -1 -38 -9 0 -24 -7 -33 -15 -35 -32 -72 11 -45 51 20
31 59 31 79 2z m-1021 -16 c33 -35 34 -48 3 -56 -13 -3 -31 -18 -41 -32 l-18
-27 64 -58 c35 -32 60 -58 54 -58 -5 -1 -39 25 -74 57 l-65 58 28 37 c16 20
38 38 50 38 l21 2 -21 4 c-12 2 -34 17 -49 34 l-29 29 25 0 c15 0 37 -12 52
-28z m1445 -1 c-18 -16 -42 -31 -53 -34 -20 -5 -20 -5 0 -6 11 -1 30 -17 44
-38 l23 -37 -61 -59 c-34 -33 -65 -56 -69 -53 -4 4 20 31 53 61 l60 53 -21 29
c-12 15 -31 29 -43 31 -28 4 -27 20 6 54 19 20 37 28 60 28 l34 0 -33 -29z
m-883 -5 c34 -13 40 -18 38 -42 -3 -36 -8 -39 -35 -20 -12 9 -30 16 -40 16
-13 0 -18 8 -18 30 0 34 1 35 55 16z m295 -6 c0 -9 -31 -30 -44 -30 -12 0 -6
28 7 33 20 9 37 8 37 -3z m-1315 -21 c5 -5 -6 -9 -27 -9 -22 0 -38 6 -41 15
-5 11 0 13 26 8 18 -3 36 -10 42 -14z m1209 6 c52 -52 7 -141 -64 -126 -44 9
-64 77 -34 119 18 26 74 30 98 7z m164 1 c-2 -8 6 -21 17 -29 16 -13 17 -17 6
-31 -7 -9 -19 -16 -25 -16 -6 0 -23 -13 -38 -29 -30 -31 -59 -43 -78 -31 -15
9 13 68 37 77 8 3 30 21 47 39 36 38 38 39 34 20z m992 -11 c-15 -18 -51 -20
-68 -3 -9 9 -12 9 -12 0 0 -7 -14 -12 -35 -12 -38 0 -50 20 -12 21 41 1 122
11 126 15 11 11 12 -7 1 -21z m-2299 5 c10 0 19 -4 19 -10 0 -5 -16 -10 -35
-10 -25 0 -35 4 -35 16 0 11 5 14 16 10 9 -3 24 -6 35 -6z m76 -10 c13 0 23
-4 23 -10 0 -5 -16 -10 -35 -10 -29 0 -35 4 -35 22 0 17 3 19 12 10 7 -7 22
-12 35 -12z m239 -24 c-3 -14 -13 -26 -21 -26 -18 0 -19 11 -3 45 14 32 33 17
24 -19z m1824 24 c0 -16 -7 -20 -35 -20 -19 0 -35 5 -35 10 0 6 11 10 24 10
14 0 28 5 31 10 10 16 15 12 15 -10z m-250 -37 c0 -20 -18 -16 -30 7 -15 28
-1 49 17 25 7 -11 13 -25 13 -32z m-1130 22 c0 -16 -9 -19 -34 -9 -25 9 -19
24 9 24 16 0 25 -6 25 -15z m701 -12 c14 -37 8 -46 -20 -27 -18 13 -20 18 -10
25 10 6 8 9 -8 9 -13 0 -23 5 -23 10 0 6 11 10 25 10 18 0 28 -7 36 -27z
m-859 -10 c15 -15 28 -30 28 -35 0 -15 -21 -8 -45 17 -45 44 -29 62 17 18z
m-733 8 c8 -5 9 -11 3 -15 -6 -3 -13 -28 -17 -55 -14 -100 43 -158 142 -148
39 4 53 2 50 -6 -6 -20 -108 -21 -145 -1 -62 33 -82 94 -66 197 7 39 11 42 33
28z m869 -19 c5 -15 -23 -15 -50 -1 -16 8 -18 13 -8 19 16 10 52 -2 58 -18z
m1589 16 c-1 -7 2 -37 7 -65 7 -44 4 -60 -13 -96 -28 -58 -69 -80 -140 -75
-30 2 -56 8 -58 15 -3 8 13 10 54 6 53 -5 62 -3 91 22 45 37 59 91 40 149 -11
32 -12 47 -4 50 19 8 24 6 23 -6z m-1848 -40 c28 -23 49 -44 46 -47 -3 -2 -20
9 -38 25 -17 17 -41 36 -52 43 -11 7 1 -7 27 -31 37 -34 45 -47 36 -56 -19
-19 -30 -15 -82 32 -86 78 -29 109 63 34z m196 22 c25 -16 26 -20 12 -26 -20
-7 -70 22 -62 36 9 14 16 12 50 -10z m845 -5 c22 -24 22 -25 4 -25 -23 0 -44
18 -44 37 0 20 14 16 40 -12z m277 9 c4 -11 -10 -30 -43 -60 -55 -49 -60 -51
-86 -27 -11 10 -18 12 -18 4 0 -6 7 -14 15 -17 18 -7 55 -65 55 -86 0 -25 -72
-97 -104 -104 -21 -5 -27 -4 -22 5 5 7 -2 11 -18 11 -27 0 -66 41 -66 71 0 23
36 35 56 18 14 -11 14 -13 0 -21 -9 -5 -21 -6 -26 -3 -6 3 -10 3 -10 -2 0 -16
15 -30 49 -48 28 -14 35 -14 42 -3 22 34 -32 102 -80 100 l-31 -1 15 30 c18
33 68 63 94 54 11 -3 29 7 51 30 19 19 39 35 44 35 6 0 -5 -14 -24 -30 -19
-16 -30 -30 -24 -30 5 0 26 16 45 37 18 20 27 32 19 28 -13 -8 -13 -7 -1 8 17
21 60 22 68 1z m-1679 -9 c22 -8 12 -25 -15 -25 -16 0 -48 -14 -73 -30 -71
-47 -89 -38 -82 43 2 17 0 17 -20 3 -29 -20 -48 -20 -48 0 0 11 6 13 19 9 11
-3 22 -2 25 3 5 9 168 7 194 -3z m836 0 c3 -8 1 -17 -4 -20 -5 -3 -6 -13 -3
-21 5 -14 3 -14 -16 -3 -11 8 -21 17 -21 21 0 3 -2 12 -5 20 -4 9 3 14 19 16
13 1 26 -5 30 -13z m633 9 c13 -4 20 -10 17 -15 -8 -14 -48 -11 -70 6 -18 14
-18 14 6 15 14 0 35 -3 47 -6z m625 -18 c13 -19 9 -66 -7 -72 -8 -3 -39 8 -70
26 -30 17 -55 29 -55 25 0 -3 -9 -1 -21 5 -28 15 -18 23 39 30 55 8 104 1 114
-14z m62 -27 c-21 -39 -31 -20 -14 26 7 20 14 25 21 18 8 -8 5 -21 -7 -44z
m-2084 21 c0 -6 -12 -16 -27 -23 -16 -6 -31 -16 -35 -22 -5 -6 -8 -5 -8 3 0 7
15 21 33 32 37 23 37 23 37 10z m96 -5 c15 -11 16 -14 3 -15 -8 0 -28 -13 -44
-30 -22 -23 -37 -30 -67 -30 -50 0 -40 20 10 21 20 0 31 3 25 6 -23 9 -14 23
15 23 21 0 24 2 12 10 -13 8 -12 10 3 10 10 0 15 5 12 10 -9 15 8 12 31 -5z
m1629 5 c-4 -6 6 -10 22 -11 l28 -1 -25 -8 -25 -8 29 -1 c21 -1 27 -5 22 -16
-4 -11 2 -15 22 -15 15 0 34 -5 42 -10 11 -7 4 -10 -26 -10 -32 0 -49 7 -75
30 -19 16 -41 30 -49 30 -11 1 -10 4 4 15 23 17 40 20 31 5z m-1092 -20 c-4
-4 -18 -11 -30 -15 -27 -8 -31 9 -6 23 19 11 49 4 36 -8z m1202 8 c14 -6 25
-17 25 -24 0 -10 -8 -9 -30 4 -16 9 -30 20 -30 25 0 10 5 9 35 -5z m-1060 -88
c42 -47 -43 -76 -89 -31 -18 18 -39 98 -30 113 5 8 90 -50 119 -82z m435 62
c-8 -3 -23 -9 -34 -14 -10 -6 -16 -6 -14 -1 3 4 8 16 11 26 6 15 10 16 29 6
18 -10 19 -13 8 -17z m-1480 9 c0 -6 -5 -13 -10 -16 -7 -4 -6 -13 1 -26 6 -11
8 -27 5 -34 -3 -9 0 -12 9 -9 16 6 75 -22 75 -36 0 -15 -46 -12 -60 4 -6 8
-18 12 -25 10 -16 -7 -39 32 -31 52 3 8 1 14 -4 14 -15 0 -12 37 3 43 20 9 37
8 37 -2z m813 -39 c-6 -54 20 -127 59 -169 l21 -23 -50 0 c-45 0 -54 -4 -77
-31 -27 -32 -51 -33 -63 -4 -3 10 3 22 16 31 51 36 68 134 31 189 l-19 30 42
11 c23 6 43 12 44 13 1 0 -1 -21 -4 -47z m251 42 c10 -4 16 -18 16 -37 0 -27
-2 -29 -14 -17 -14 15 -31 60 -22 60 2 0 11 -3 20 -6z m518 -16 c16 -8 16 -10
-2 -41 -11 -19 -17 -46 -15 -67 1 -19 3 -40 4 -47 1 -7 15 -28 31 -46 35 -41
36 -48 10 -72 -26 -24 -25 -37 6 -75 15 -17 25 -32 23 -34 -16 -13 -51 -26
-59 -21 -6 3 -10 37 -10 75 0 57 -4 73 -23 96 -19 22 -28 25 -54 20 -16 -4
-42 -20 -57 -35 -18 -19 -34 -27 -47 -24 -10 3 -26 0 -34 -7 -11 -9 -19 -10
-26 -3 -7 7 14 22 64 45 53 26 80 45 95 69 25 42 37 124 23 161 -10 27 -10 27
22 21 18 -3 40 -10 49 -15z m788 -40 c-16 -44 -56 -76 -98 -77 -30 -1 -25 16
11 37 24 15 29 15 37 2 8 -12 10 -11 10 7 0 35 32 95 44 83 7 -7 6 -24 -4 -52z
m-1921 -2 c58 -59 81 -118 57 -146 -8 -8 -17 -25 -20 -37 -9 -27 -23 -29 -48
-6 -21 18 -23 33 -6 33 19 0 48 32 48 53 0 28 -28 57 -55 57 -27 0 -52 -26
-57 -59 -3 -23 -5 -22 -57 25 l-54 48 39 17 c22 9 50 28 63 43 14 14 27 26 31
26 3 0 29 -24 59 -54z m906 24 c-10 -11 -30 -20 -44 -20 -20 0 -22 3 -11 9 8
6 17 8 21 6 3 -3 14 4 24 15 10 11 20 18 23 15 3 -3 -3 -14 -13 -25z m835 -1
c29 -25 32 -31 20 -39 -20 -13 -46 -7 -42 9 1 6 -4 19 -13 27 -16 16 -20 34
-7 34 4 -1 23 -14 42 -31z m-2000 6 c0 -10 -10 -15 -26 -15 -22 0 -25 2 -14
15 7 8 19 15 26 15 8 0 14 -7 14 -15z m710 2 c0 -7 -12 -18 -27 -24 l-28 -12
28 6 c15 3 27 2 27 -2 0 -8 -42 -44 -51 -45 -13 0 -3 71 11 80 21 14 40 12 40
-3z m1089 -16 c20 -15 47 -32 60 -36 23 -7 22 -8 -20 -51 -24 -24 -46 -44 -50
-44 -4 0 -12 14 -19 30 -23 56 -75 63 -107 14 -13 -21 -14 -29 -3 -48 7 -13
23 -30 36 -37 29 -15 30 -25 3 -39 -24 -13 -21 -15 -52 32 -16 23 -22 40 -16
49 5 8 9 26 9 41 0 19 14 39 51 72 28 25 56 46 61 46 6 0 27 -13 47 -29z
m-1276 -22 c30 -32 36 -54 12 -45 -23 9 -65 -15 -81 -45 -18 -36 -18 -48 3
-71 10 -12 12 -18 4 -18 -38 0 -110 72 -111 110 0 32 24 66 64 91 39 24 72 18
109 -22z m777 16 c0 -7 -11 -15 -25 -17 -26 -6 -33 10 -14 29 14 14 39 6 39
-12z m-230 0 c0 -8 7 -15 15 -15 20 0 19 -14 -2 -31 -14 -12 -16 -12 -11 1 3
9 -5 20 -20 27 -31 16 -31 16 -27 -4 1 -10 7 -17 13 -16 14 3 21 -28 11 -52
-4 -12 -8 -14 -8 -6 -1 19 -41 61 -58 61 -7 0 -13 5 -13 10 0 6 9 10 20 10 11
0 23 7 26 15 4 8 17 15 30 15 15 0 24 -6 24 -15z m143 3 c13 -36 -30 -80 -90
-93 -42 -8 -45 15 -7 42 14 10 37 28 52 40 31 26 38 28 45 11z m-1234 -14 c1
-1 0 -7 -4 -13 -8 -14 -35 -14 -55 -1 -13 9 -13 11 0 20 13 8 47 5 59 -6z m67
-15 c6 -10 -51 -68 -68 -69 -15 0 -8 22 15 50 23 31 41 37 53 19z m1916 -23
c16 -19 25 -37 20 -40 -11 -7 -74 53 -67 64 10 16 19 12 47 -24z m-2036 10
c18 -14 18 -15 1 -22 -20 -7 -69 14 -61 28 8 13 38 10 60 -6z m1372 2 c-3 -7
-15 -15 -29 -19 -23 -7 -23 -7 -1 -8 39 -2 27 -31 -13 -31 -41 0 -42 2 -14 41
20 28 65 42 57 17z m780 4 c9 -6 5 -12 -13 -20 -35 -16 -55 -15 -55 2 0 23 43
34 68 18z m-1365 -10 c5 -7 -27 -52 -37 -52 -11 0 -6 36 6 48 14 14 25 15 31
4z m279 -14 c23 -18 31 -53 16 -65 -20 -16 -84 -23 -97 -10 -14 14 -14 42 -1
68 12 22 58 26 82 7z m-697 -220 c227 -149 500 -230 732 -215 306 20 572 137
800 351 59 56 83 72 94 65 11 -7 -4 -27 -71 -92 -179 -175 -421 -301 -655
-341 -126 -21 -217 -28 -210 -16 4 6 -5 10 -20 10 -15 0 -24 -4 -20 -10 16
-25 -265 26 -387 70 -147 54 -397 207 -381 233 3 6 2 7 -4 4 -12 -7 -143 110
-143 128 0 33 31 16 110 -59 47 -45 117 -102 155 -128z m438 206 c3 -4 0 -21
-7 -39 -12 -28 -12 -33 3 -42 15 -9 16 -6 13 23 -6 47 15 44 36 -5 9 -22 28
-46 42 -55 14 -8 19 -16 12 -16 -7 0 -26 10 -41 21 -16 12 -34 18 -40 15 -13
-9 -58 21 -72 47 -8 14 -8 18 0 13 6 -4 16 4 23 18 11 26 19 31 31 20z m-465
-30 c4 -30 -21 -48 -47 -34 -24 12 -27 30 -9 48 19 19 53 10 56 -14z m280 18
c27 -18 -25 -92 -65 -92 -13 0 -23 5 -23 11 0 5 5 7 10 4 6 -4 22 1 35 9 27
17 34 39 11 30 -18 -7 -31 27 -14 38 7 4 18 8 23 8 6 0 16 -4 23 -8z m1196
-15 c9 -15 7 -21 -8 -32 -35 -26 -74 13 -44 43 16 16 38 12 52 -11z m-508 -7
c37 -15 17 -34 -25 -25 -32 7 -40 20 -18 28 6 3 13 6 14 6 1 1 14 -4 29 -9z
m48 -15 c-3 -8 -20 -23 -38 -33 -30 -18 -35 -18 -79 -4 -26 8 -47 19 -47 23 0
17 60 9 79 -10 19 -19 20 -19 53 10 39 33 39 33 32 14z m-440 -24 c20 -21 24
-30 14 -34 -19 -6 -42 8 -62 38 -16 24 -15 25 2 25 10 0 31 -13 46 -29z m51 2
c14 -16 21 -29 15 -31 -13 -5 -71 44 -63 52 11 11 22 6 48 -21z m-835 -43 c98
-95 225 -185 345 -245 199 -99 358 -137 575 -137 333 -1 651 129 898 367 42
41 80 75 84 75 45 0 -42 -100 -172 -199 -207 -157 -399 -238 -665 -279 -22 -3
-96 -5 -165 -5 -306 2 -618 125 -861 339 -105 93 -144 144 -108 144 4 0 35
-27 69 -60z m960 40 c-11 -21 -50 -35 -72 -27 -7 3 2 8 20 12 19 5 36 14 39
21 3 8 9 14 14 14 6 0 5 -9 -1 -20z m100 -5 c17 -9 30 -20 30 -26 0 -6 7 -8
16 -5 9 3 12 2 9 -5 -12 -19 -125 18 -125 41 0 15 37 12 70 -5z m-740 -32 c3
-3 -3 -11 -13 -18 -12 -8 -14 -15 -7 -20 5 -3 8 -11 5 -16 -3 -5 -18 -1 -32 8
-24 16 -24 17 -7 30 10 7 12 13 6 13 -7 0 -12 5 -12 10 0 10 48 4 60 -7z
m1253 -15 c6 -22 -7 -48 -24 -48 -12 0 -31 49 -23 61 10 17 42 9 47 -13z
m-730 -15 c21 -6 22 -26 2 -43 -10 -9 -15 -9 -15 -1 0 6 6 11 13 11 6 0 -3 9
-20 20 -35 21 -45 37 -15 25 9 -4 25 -10 35 -12z m122 1 c33 -1 67 2 77 7 12
6 18 6 18 0 0 -24 -121 -36 -159 -16 -33 16 -44 33 -13 19 9 -4 44 -9 77 -10z
m-601 -48 c-8 -52 -9 -52 -39 -36 -30 16 -31 23 -4 60 30 40 51 29 43 -24z
m916 -15 c0 -38 4 -81 10 -95 8 -21 6 -26 -10 -30 -11 -4 -28 -8 -38 -11 -16
-4 -18 -1 -14 25 4 28 5 29 18 13 7 -10 14 -13 14 -7 0 13 -23 64 -30 64 -3 0
-16 -25 -30 -55 -30 -66 -60 -76 -60 -20 0 19 -4 35 -10 35 -5 0 -10 -18 -10
-40 0 -50 -17 -52 -50 -4 -13 20 -26 31 -28 25 -2 -6 -10 -11 -18 -11 -8 0
-14 -10 -14 -24 0 -16 5 -23 16 -22 9 0 19 -4 21 -10 2 -7 -12 -13 -37 -16
-33 -3 -39 -1 -34 12 12 28 21 145 13 154 -17 18 -9 26 25 26 28 0 38 -6 53
-30 9 -16 21 -30 26 -30 4 0 13 14 18 30 13 37 22 38 38 4 14 -31 31 -22 51
27 11 26 50 57 73 59 4 0 7 -31 7 -69z m-637 38 c42 -10 47 -14 47 -40 0 -22
-5 -29 -20 -29 -11 0 -20 7 -20 15 0 18 -37 38 -56 31 -20 -8 -19 -105 1 -112
8 -4 13 -10 10 -14 -3 -5 4 -6 15 -3 23 6 25 16 8 43 -17 26 -7 32 30 19 30
-10 32 -14 32 -61 0 -42 -3 -49 -16 -44 -9 3 -28 9 -42 12 -50 11 -83 27 -92
45 -6 10 -10 45 -10 78 0 62 15 86 50 76 8 -2 36 -9 63 -16z m868 -1 c10 -13
18 -28 19 -34 0 -10 -49 -39 -55 -32 -1 2 -5 22 -9 46 -5 35 -3 42 10 42 9 0
24 -10 35 -22z m-1066 -38 c0 -18 -6 -26 -23 -28 -13 -2 -25 3 -28 12 -10 26
4 48 28 44 17 -2 23 -10 23 -28z m320 16 c11 -3 30 -24 43 -46 l23 -40 25 30
c14 16 23 33 21 37 -3 5 15 9 39 9 l43 1 -50 -56 c-44 -49 -50 -60 -47 -93 4
-38 3 -38 -35 -38 -34 0 -37 2 -27 19 5 11 10 27 10 37 0 18 -65 114 -86 127
-20 12 -17 29 4 23 9 -2 26 -7 37 -10z m670 -16 c0 -18 -6 -26 -23 -28 -13 -2
-25 3 -28 12 -10 26 4 48 28 44 17 -2 23 -10 23 -28z m-945 -60 c0 -31 -13
-37 -40 -20 -12 7 -12 12 4 29 26 29 36 26 36 -9z m270 -71 c0 -28 -13 -44
-28 -35 -4 2 -6 23 -4 46 3 33 7 39 18 29 8 -6 14 -24 14 -40z m190 14 c0 -46
-13 -68 -34 -60 -20 8 -21 46 0 75 22 32 34 27 34 -15z"/>
<path d="M600 2123 c0 -6 7 -16 16 -23 13 -12 5 -24 -63 -94 -44 -45 -103
-109 -132 -144 -46 -55 -51 -65 -40 -80 7 -9 15 -19 16 -21 6 -9 102 105 103
122 0 10 -5 15 -10 12 -6 -4 -8 -10 -5 -15 3 -4 -2 -11 -10 -14 -30 -11 8 41
94 129 l84 86 -26 27 c-15 15 -27 22 -27 15z"/>
<path d="M525 2030 c-27 -27 -47 -50 -44 -50 7 0 35 26 73 68 46 50 26 38 -29
-18z"/>
<path d="M361 1896 c-42 -43 -43 -44 -26 -70 l17 -25 50 60 c56 66 59 96 3 33
-19 -21 -34 -34 -35 -28 0 6 7 17 16 24 19 17 37 50 26 50 -4 0 -27 -20 -51
-44z"/>
<path d="M2422 2107 l-21 -22 94 -95 c52 -52 95 -98 95 -102 0 -5 -12 -8 -27
-8 -26 0 -25 -3 32 -60 l60 -61 18 23 c11 13 14 24 9 26 -6 2 -35 33 -65 70
-30 37 -84 97 -121 135 -36 37 -66 70 -66 74 0 3 7 15 17 25 24 26 0 22 -25
-5z"/>
<path d="M775 1610 c-36 -15 -78 -66 -68 -84 7 -13 16 -9 56 27 59 53 65 79
12 57z"/>
<path d="M546 1057 c6 -136 12 -153 58 -159 31 -3 35 -2 31 17 -3 11 -9 51
-14 89 -10 67 -21 100 -21 59 0 -24 -26 -38 -37 -20 -4 7 -11 37 -15 67 -4 32
-5 11 -2 -53z"/>
<path d="M2430 1104 c-1 -71 -4 -147 -9 -169 l-7 -40 37 3 c44 5 46 10 52 137
3 50 3 71 0 48 -4 -37 -7 -43 -28 -43 -27 0 -33 20 -34 119 0 35 -3 66 -6 69
-3 3 -5 -53 -5 -124z"/>
<path d="M2090 703 c0 -2 7 -16 16 -31 15 -26 15 -26 -1 -4 -23 30 -35 28 -35
-5 0 -50 14 -58 44 -27 33 36 33 60 1 66 -14 3 -25 3 -25 1z"/>
<path d="M919 698 c-9 -16 -9 -23 0 -26 6 -2 11 -8 11 -13 0 -6 9 -19 19 -30
19 -20 20 -20 29 -2 10 20 5 44 -12 55 -8 6 -8 8 0 8 6 0 11 6 11 14 0 12 -5
11 -26 -2 -24 -16 -25 -16 -18 1 9 24 0 21 -14 -5z"/>
</g>
</svg>
